<mxfile host="app.diagrams.net" agent="Mozilla/5.0 (Windows NT 10.0; Win64; x64) AppleWebKit/537.36 (KHTML, like Gecko) Chrome/131.0.0.0 Safari/537.36" version="25.0.3">
  <diagram name="Page-1" id="lg15ASVOXkxG5HCrXa5D">
    <mxGraphModel dx="2032" dy="683" grid="1" gridSize="10" guides="1" tooltips="1" connect="1" arrows="1" fold="1" page="1" pageScale="1" pageWidth="850" pageHeight="1100" math="0" shadow="0">
      <root>
        <mxCell id="0" />
        <mxCell id="1" parent="0" />
        <mxCell id="Elm8jRyA7gBIBVSizPYm-1" value="" style="rounded=0;whiteSpace=wrap;html=1;" vertex="1" parent="1">
          <mxGeometry x="200" y="40" width="640" height="140" as="geometry" />
        </mxCell>
        <mxCell id="Elm8jRyA7gBIBVSizPYm-2" value="Sale Console" style="rounded=1;whiteSpace=wrap;html=1;" vertex="1" parent="1">
          <mxGeometry x="220" y="75" width="130" height="70" as="geometry" />
        </mxCell>
        <mxCell id="Elm8jRyA7gBIBVSizPYm-6" value="Quick Sale Mode" style="rounded=1;whiteSpace=wrap;html=1;" vertex="1" parent="1">
          <mxGeometry x="380" y="75" width="130" height="70" as="geometry" />
        </mxCell>
        <mxCell id="Elm8jRyA7gBIBVSizPYm-7" value="Returns/Refunds" style="rounded=1;whiteSpace=wrap;html=1;" vertex="1" parent="1">
          <mxGeometry x="540" y="75" width="130" height="70" as="geometry" />
        </mxCell>
        <mxCell id="Elm8jRyA7gBIBVSizPYm-8" value="Discount/Rewards" style="rounded=1;whiteSpace=wrap;html=1;" vertex="1" parent="1">
          <mxGeometry x="690" y="75" width="130" height="70" as="geometry" />
        </mxCell>
        <mxCell id="Elm8jRyA7gBIBVSizPYm-9" value="" style="rounded=0;whiteSpace=wrap;html=1;" vertex="1" parent="1">
          <mxGeometry x="120" y="240" width="680" height="200" as="geometry" />
        </mxCell>
        <mxCell id="Elm8jRyA7gBIBVSizPYm-10" value="POS Interface Layer" style="text;html=1;align=center;verticalAlign=middle;whiteSpace=wrap;rounded=0;" vertex="1" parent="1">
          <mxGeometry x="445" y="45" width="150" height="30" as="geometry" />
        </mxCell>
        <mxCell id="Elm8jRyA7gBIBVSizPYm-11" value="Transaction Processor" style="rounded=1;whiteSpace=wrap;html=1;" vertex="1" parent="1">
          <mxGeometry x="375" y="260" width="170" height="60" as="geometry" />
        </mxCell>
        <mxCell id="Elm8jRyA7gBIBVSizPYm-12" value="Payment Processor" style="rounded=1;whiteSpace=wrap;html=1;" vertex="1" parent="1">
          <mxGeometry x="180" y="350" width="120" height="60" as="geometry" />
        </mxCell>
        <mxCell id="Elm8jRyA7gBIBVSizPYm-13" value="Tax Manager" style="rounded=1;whiteSpace=wrap;html=1;" vertex="1" parent="1">
          <mxGeometry x="400" y="350" width="120" height="60" as="geometry" />
        </mxCell>
        <mxCell id="Elm8jRyA7gBIBVSizPYm-14" value="Split Payment Handler" style="rounded=1;whiteSpace=wrap;html=1;" vertex="1" parent="1">
          <mxGeometry x="620" y="350" width="140" height="60" as="geometry" />
        </mxCell>
        <mxCell id="Elm8jRyA7gBIBVSizPYm-15" value="" style="rounded=0;whiteSpace=wrap;html=1;" vertex="1" parent="1">
          <mxGeometry x="-440" y="240" width="480" height="200" as="geometry" />
        </mxCell>
        <mxCell id="Elm8jRyA7gBIBVSizPYm-16" value="Receipt Generator" style="rounded=1;whiteSpace=wrap;html=1;" vertex="1" parent="1">
          <mxGeometry x="-270" y="260" width="140" height="60" as="geometry" />
        </mxCell>
        <mxCell id="Elm8jRyA7gBIBVSizPYm-17" value="Physical Receipt" style="rounded=1;whiteSpace=wrap;html=1;" vertex="1" parent="1">
          <mxGeometry x="-260" y="340" width="120" height="60" as="geometry" />
        </mxCell>
        <mxCell id="Elm8jRyA7gBIBVSizPYm-18" value="Digital Email" style="rounded=1;whiteSpace=wrap;html=1;" vertex="1" parent="1">
          <mxGeometry x="-410" y="340" width="120" height="60" as="geometry" />
        </mxCell>
        <mxCell id="Elm8jRyA7gBIBVSizPYm-19" value="Gift Receipt" style="rounded=1;whiteSpace=wrap;html=1;" vertex="1" parent="1">
          <mxGeometry x="-110" y="340" width="120" height="60" as="geometry" />
        </mxCell>
        <mxCell id="Elm8jRyA7gBIBVSizPYm-21" style="edgeStyle=orthogonalEdgeStyle;rounded=0;orthogonalLoop=1;jettySize=auto;html=1;exitX=0.5;exitY=1;exitDx=0;exitDy=0;entryX=0.5;entryY=0;entryDx=0;entryDy=0;" edge="1" parent="1" source="Elm8jRyA7gBIBVSizPYm-2" target="Elm8jRyA7gBIBVSizPYm-11">
          <mxGeometry relative="1" as="geometry" />
        </mxCell>
        <mxCell id="Elm8jRyA7gBIBVSizPYm-22" style="edgeStyle=orthogonalEdgeStyle;rounded=0;orthogonalLoop=1;jettySize=auto;html=1;exitX=0.5;exitY=1;exitDx=0;exitDy=0;" edge="1" parent="1" source="Elm8jRyA7gBIBVSizPYm-6">
          <mxGeometry relative="1" as="geometry">
            <mxPoint x="460" y="260" as="targetPoint" />
          </mxGeometry>
        </mxCell>
        <mxCell id="Elm8jRyA7gBIBVSizPYm-23" style="edgeStyle=orthogonalEdgeStyle;rounded=0;orthogonalLoop=1;jettySize=auto;html=1;entryX=0.5;entryY=0;entryDx=0;entryDy=0;" edge="1" parent="1" source="Elm8jRyA7gBIBVSizPYm-7" target="Elm8jRyA7gBIBVSizPYm-11">
          <mxGeometry relative="1" as="geometry" />
        </mxCell>
        <mxCell id="Elm8jRyA7gBIBVSizPYm-26" style="edgeStyle=orthogonalEdgeStyle;rounded=0;orthogonalLoop=1;jettySize=auto;html=1;exitX=0.5;exitY=1;exitDx=0;exitDy=0;entryX=0.5;entryY=0;entryDx=0;entryDy=0;" edge="1" parent="1" source="Elm8jRyA7gBIBVSizPYm-8" target="Elm8jRyA7gBIBVSizPYm-11">
          <mxGeometry relative="1" as="geometry" />
        </mxCell>
        <mxCell id="Elm8jRyA7gBIBVSizPYm-27" value="Receipt Management" style="text;html=1;align=center;verticalAlign=middle;whiteSpace=wrap;rounded=0;" vertex="1" parent="1">
          <mxGeometry x="-295" y="410" width="190" height="30" as="geometry" />
        </mxCell>
      </root>
    </mxGraphModel>
  </diagram>
</mxfile>
